<?xml version="1.0" encoding="UTF-8" standalone="no" ?>
<!DOCTYPE svg PUBLIC "-//W3C//DTD SVG 1.1//EN" "http://www.w3.org/Graphics/SVG/1.1/DTD/svg11.dtd">
<svg xmlns="http://www.w3.org/2000/svg" xmlns:xlink="http://www.w3.org/1999/xlink" version="1.1" width="1080" height="1080" viewBox="0 0 1080 1080" xml:space="preserve">
<desc>Created with Fabric.js 5.2.4</desc>
<defs>
</defs>
<rect x="0" y="0" width="100%" height="100%" fill="transparent"></rect>
<g transform="matrix(1 0 0 1 540 540)" id="521d913a-791c-40d6-ae41-5bb73c9f64c8"  >
<rect style="stroke: none; stroke-width: 1; stroke-dasharray: none; stroke-linecap: butt; stroke-dashoffset: 0; stroke-linejoin: miter; stroke-miterlimit: 4; fill: rgb(255,255,255); fill-rule: nonzero; opacity: 1; visibility: hidden;" vector-effect="non-scaling-stroke"  x="-540" y="-540" rx="0" ry="0" width="1080" height="1080" />
</g>
<g transform="matrix(1 0 0 1 540 540)" id="58546cf9-db91-493f-aed8-18d2fc85ac9a"  >
</g>
<g transform="matrix(8.14 0 0 8.14 541.5 539.58)"  >
<path style="stroke: none; stroke-width: 1; stroke-dasharray: none; stroke-linecap: butt; stroke-dashoffset: 0; stroke-linejoin: miter; stroke-miterlimit: 4; fill: rgb(253,184,29); fill-rule: nonzero; opacity: 1;" vector-effect="non-scaling-stroke"  transform=" translate(-162.77, -64.52)" d="M 162.77 0 C 127.19000000000001 0 98.25000000000001 28.94 98.25000000000001 64.52 C 98.25000000000001 100.1 127.19000000000001 129.04 162.77 129.04 C 198.35000000000002 129.04 227.29000000000002 100.1 227.29000000000002 64.52 C 227.29000000000002 28.939999999999998 198.35 0 162.77 0 Z M 186.41000000000003 32.9 L 192.73000000000002 32.9 L 192.73000000000002 39.22 L 186.41000000000003 39.22 L 186.41000000000003 32.9 Z M 180.07000000000002 39.25 L 174.71 39.25 L 174.71 45.6 L 180.07000000000002 45.6 L 180.07000000000002 51.92 L 174.71 51.92 L 174.71 99.19 L 162.77 110.14 L 150.83 99.19 L 150.83 51.96 L 126.48000000000002 51.96 L 126.48000000000002 32.88 L 174.71 32.88 L 174.71 32.93 L 180.07000000000002 32.93 L 180.07000000000002 39.25 Z M 199.06000000000003 45.57 L 192.74000000000004 45.57 L 192.74000000000004 51.89 L 186.42000000000004 51.89 L 186.42000000000004 45.57 L 180.10000000000005 45.57 L 180.10000000000005 39.25 L 186.42000000000004 39.25 L 186.42000000000004 45.57 L 192.74000000000004 45.57 L 192.74000000000004 39.25 L 199.06000000000003 39.25 L 199.06000000000003 45.57 Z" stroke-linecap="round" />
</g>
</svg>